# Exported from Figuro at https://www.figuro.io

mtllib chessboard.mtl
o cube1
v -128 -32 -128
v 128 -32 -128
v 128 32 -128
v -128 32 -128
v 128 -32 128
v 128 32 128
v -128 -32 128
v -128 32 128
# 8 vertices
vt -1 0
vt -1 2
vt 1 2
vt 1 2
vt 1 0
vt -1 0
vt 1 1.25
vt 1 0.75
vt -1 0.75
vt -1 0.75
vt -1 1.25
vt 1 1.25
vt 1 1.25
vt 1 0.75
vt -1 0.75
vt -1 0.75
vt -1 1.25
vt 1 1.25
vt 1 1.25
vt 1 0.75
vt -1 0.75
vt -1 0.75
vt -1 1.25
vt 1 1.25
vt 1 1.25
vt 1 0.75
vt -1 0.75
vt -1 0.75
vt -1 1.25
vt 1 1.25
vt -1 0
vt -1 2
vt 1 2
vt 1 2
vt 1 0
vt -1 0
# 36 uvs
vn -0.3333333333333333 -0.3333333333333333 -0.3333333333333333
vn 0.3333333333333333 -0.3333333333333333 -0.3333333333333333
vn 0.3333333333333333 0.3333333333333333 -0.3333333333333333
vn -0.3333333333333333 0.3333333333333333 -0.3333333333333333
vn 0.3333333333333333 -0.3333333333333333 0.3333333333333333
vn 0.3333333333333333 0.3333333333333333 0.3333333333333333
vn -0.3333333333333333 -0.3333333333333333 0.3333333333333333
vn -0.3333333333333333 0.3333333333333333 0.3333333333333333
# 8 normals
usemtl chessboard_small
f 3/36/3 4/35/4 8/34/8 
f 8/36/8 6/35/6 3/34/3 
f 7/36/7 5/35/5 6/34/6 
f 6/36/6 8/35/8 7/34/7 
f 5/36/5 2/35/2 3/34/3 
f 3/36/3 6/35/6 5/34/5 
f 1/36/1 7/35/7 8/34/8 
f 8/36/8 4/35/4 1/34/1 
f 2/36/2 1/35/1 4/34/4 
f 4/36/4 3/35/3 2/34/2 
f 5/36/5 7/35/7 1/34/1 
f 1/36/1 2/35/2 5/34/5 
# 12 polygons